<svg class="signup-login__svg" viewBox="0 0 80 24" xmlns="http://www.w3.org/2000/svg"><g fill="#FFF" fill-rule="evenodd"><path d="M11.995 0C5.374 0 0 5.357 0 11.957c0 6.614 5.374 11.957 11.995 11.957 6.634 0 11.994-5.357 11.994-11.957C24.003 5.357 18.629 0 11.995 0zm5.502 17.257a.746.746 0 0 1-1.031.243c-2.824-1.714-6.363-2.1-10.548-1.157a.74.74 0 1 1-.33-1.443c4.572-1.043 8.499-.6 11.651 1.329a.722.722 0 0 1 .258 1.028zM18.973 14a.95.95 0 0 1-1.29.314c-3.224-1.985-8.139-2.557-11.95-1.4-.502.143-1.018-.128-1.162-.614a.923.923 0 0 1 .63-1.157c4.357-1.314 9.774-.686 13.486 1.586A.929.929 0 0 1 18.973 14zm.13-3.4C15.232 8.314 8.855 8.1 5.158 9.214a1.13 1.13 0 0 1-1.404-.743c-.187-.585.157-1.214.745-1.4 4.242-1.285 11.292-1.028 15.734 1.6.53.315.703 1 .387 1.529-.3.543-.988.714-1.519.4zM32.645 11.043c-2.078-.486-2.437-.843-2.437-1.572 0-.685.645-1.142 1.605-1.142.932 0 1.863.357 2.838 1.071.028.029.071.029.1.029a.097.097 0 0 0 .086-.058l1.018-1.428a.135.135 0 0 0-.03-.186c-1.16-.928-2.464-1.371-3.983-1.371-2.235 0-3.797 1.343-3.797 3.257 0 2.057 1.347 2.786 3.682 3.343 1.978.457 2.322.843 2.322 1.514 0 .757-.674 1.229-1.763 1.229-1.203 0-2.192-.4-3.296-1.358-.028-.028-.071-.028-.1-.028-.043 0-.072.014-.086.043l-1.132 1.343c-.043.057-.043.142.014.185a6.79 6.79 0 0 0 4.572 1.743c2.407 0 3.97-1.314 3.97-3.343-.03-1.714-1.047-2.657-3.583-3.271zM41.658 9c-1.046 0-1.906.414-2.608 1.257v-.943a.128.128 0 0 0-.129-.128h-1.848a.128.128 0 0 0-.13.128V19.83c0 .071.058.128.13.128h1.848a.128.128 0 0 0 .13-.128v-3.315c.701.786 1.561 1.172 2.607 1.172 1.935 0 3.913-1.486 3.913-4.343C45.57 10.5 43.593 9 41.658 9zm1.749 4.343c0 1.457-.903 2.457-2.179 2.457-1.275 0-2.22-1.057-2.22-2.457s.96-2.457 2.22-2.457c1.262 0 2.179 1.028 2.179 2.457zM50.6 9c-2.493 0-4.456 1.929-4.456 4.371 0 2.429 1.949 4.329 4.428 4.329 2.508 0 4.47-1.914 4.47-4.357C55.043 10.914 53.095 9 50.6 9zm0 6.829c-1.332 0-2.335-1.072-2.335-2.472 0-1.414.974-2.443 2.307-2.443s2.35 1.072 2.35 2.486c0 1.4-.974 2.429-2.322 2.429zM60.388 9.171h-2.035V7.1a.128.128 0 0 0-.129-.129h-1.848a.128.128 0 0 0-.13.129v2.086h-.888a.128.128 0 0 0-.129.128V10.9c0 .071.058.129.13.129h.888v4.114c0 1.657.83 2.5 2.464 2.5.66 0 1.219-.143 1.734-.429.043-.028.072-.071.072-.114v-1.514c0-.043-.029-.086-.057-.115a.108.108 0 0 0-.13 0 2.263 2.263 0 0 1-1.088.258c-.602 0-.86-.272-.86-.872v-3.814h2.035a.128.128 0 0 0 .129-.129v-1.6c-.029-.071-.086-.143-.158-.143zM67.496 9.186v-.257c0-.758.287-1.086.931-1.086.387 0 .703.071 1.047.186.043.014.086 0 .129-.015.028-.028.057-.071.057-.114V6.343a.137.137 0 0 0-.1-.129C69.187 6.1 68.728 6 68.012 6c-1.72 0-2.623.957-2.623 2.786v.385h-.888c-.072 0-.143.058-.143.129v1.6c0 .071.057.129.143.129h.888v6.342c0 .072.058.129.13.129h1.848a.128.128 0 0 0 .129-.129v-6.328h1.734l2.651 6.343c-.3.671-.602.8-1.003.8-.33 0-.674-.1-1.018-.286-.028-.014-.071-.014-.114-.014-.029.014-.072.043-.086.071l-.63 1.372c-.03.071 0 .142.057.171.659.357 1.246.5 1.977.5 1.376 0 2.121-.643 2.795-2.343l3.224-8.286a.138.138 0 0 0-.014-.128.13.13 0 0 0-.115-.057h-1.935c-.057 0-.114.043-.129.085L72.913 14.9l-2.121-5.629c-.014-.057-.072-.085-.129-.085h-3.167zM63.383 9.171h-1.848a.128.128 0 0 0-.13.129v8.071c0 .072.058.129.13.129h1.848a.128.128 0 0 0 .13-.129V9.314c0-.071-.058-.143-.13-.143zM62.452 5.5c-.731 0-1.333.6-1.333 1.329 0 .728.602 1.328 1.333 1.328.73 0 1.332-.6 1.332-1.328 0-.729-.587-1.329-1.332-1.329zM78.717 11.771c-.731 0-1.304-.585-1.304-1.3 0-.714.573-1.314 1.318-1.314.73 0 1.304.586 1.304 1.3-.014.714-.587 1.314-1.318 1.314zm0-2.485c-.674 0-1.175.528-1.175 1.185a1.16 1.16 0 0 0 1.175 1.172c.673 0 1.175-.529 1.175-1.186a1.16 1.16 0 0 0-1.175-1.171zm.286 1.314l.373.514h-.315l-.33-.471h-.287v.471h-.258V9.743h.617c.315 0 .53.157.53.443 0 .214-.143.357-.33.414zm-.215-.614h-.344v.428h.344c.172 0 .273-.085.273-.214 0-.143-.1-.214-.273-.214z"></path></g></svg>
